<mxfile host="app.diagrams.net" modified="2022-03-12T10:55:54.321Z" agent="5.0 (Windows NT 10.0; Win64; x64) AppleWebKit/537.36 (KHTML, like Gecko) Chrome/99.0.4844.51 Safari/537.36 Edg/99.0.1150.36" etag="sgha8etpvJyE35Jc_ey7" version="17.0.0" type="github">
  <diagram id="vppQzGNSH-4t_KWCzN--" name="Page-1">
    <mxGraphModel dx="438" dy="194" grid="1" gridSize="10" guides="1" tooltips="1" connect="1" arrows="1" fold="1" page="1" pageScale="1" pageWidth="827" pageHeight="1169" math="0" shadow="0">
      <root>
        <mxCell id="0" />
        <mxCell id="1" parent="0" />
        <mxCell id="rFXL4fR5jrizrp9rmWpI-1" value="q0" style="ellipse;whiteSpace=wrap;html=1;aspect=fixed;" parent="1" vertex="1">
          <mxGeometry x="120" y="190" width="40" height="40" as="geometry" />
        </mxCell>
        <mxCell id="rFXL4fR5jrizrp9rmWpI-2" value="" style="endArrow=classic;html=1;rounded=0;" parent="1" edge="1">
          <mxGeometry width="50" height="50" relative="1" as="geometry">
            <mxPoint x="70" y="210" as="sourcePoint" />
            <mxPoint x="120" y="210" as="targetPoint" />
            <Array as="points">
              <mxPoint x="100" y="210" />
            </Array>
          </mxGeometry>
        </mxCell>
        <mxCell id="rFXL4fR5jrizrp9rmWpI-3" value="q1" style="ellipse;whiteSpace=wrap;html=1;aspect=fixed;" parent="1" vertex="1">
          <mxGeometry x="200" y="190" width="40" height="40" as="geometry" />
        </mxCell>
        <mxCell id="rFXL4fR5jrizrp9rmWpI-5" value="" style="endArrow=classic;html=1;rounded=0;exitX=1;exitY=0.5;exitDx=0;exitDy=0;entryX=0;entryY=0.5;entryDx=0;entryDy=0;" parent="1" source="rFXL4fR5jrizrp9rmWpI-1" target="rFXL4fR5jrizrp9rmWpI-3" edge="1">
          <mxGeometry width="50" height="50" relative="1" as="geometry">
            <mxPoint x="200" y="220" as="sourcePoint" />
            <mxPoint x="210" y="180" as="targetPoint" />
          </mxGeometry>
        </mxCell>
        <mxCell id="rFXL4fR5jrizrp9rmWpI-6" value="c" style="text;html=1;align=center;verticalAlign=middle;resizable=0;points=[];autosize=1;strokeColor=none;fillColor=none;" parent="1" vertex="1">
          <mxGeometry x="170" y="190" width="20" height="20" as="geometry" />
        </mxCell>
        <mxCell id="rFXL4fR5jrizrp9rmWpI-10" style="edgeStyle=orthogonalEdgeStyle;rounded=0;orthogonalLoop=1;jettySize=auto;html=1;exitX=1;exitY=0.5;exitDx=0;exitDy=0;" parent="1" source="rFXL4fR5jrizrp9rmWpI-7" edge="1">
          <mxGeometry relative="1" as="geometry">
            <mxPoint x="360" y="210.1379310344828" as="targetPoint" />
          </mxGeometry>
        </mxCell>
        <mxCell id="rFXL4fR5jrizrp9rmWpI-7" value="q2" style="ellipse;whiteSpace=wrap;html=1;aspect=fixed;" parent="1" vertex="1">
          <mxGeometry x="280" y="190" width="40" height="40" as="geometry" />
        </mxCell>
        <mxCell id="rFXL4fR5jrizrp9rmWpI-8" value="" style="endArrow=classic;html=1;rounded=0;exitX=1;exitY=0.5;exitDx=0;exitDy=0;entryX=0;entryY=0.5;entryDx=0;entryDy=0;" parent="1" source="rFXL4fR5jrizrp9rmWpI-3" target="rFXL4fR5jrizrp9rmWpI-7" edge="1">
          <mxGeometry width="50" height="50" relative="1" as="geometry">
            <mxPoint x="250" y="220" as="sourcePoint" />
            <mxPoint x="300" y="170" as="targetPoint" />
          </mxGeometry>
        </mxCell>
        <mxCell id="rFXL4fR5jrizrp9rmWpI-9" value="u" style="text;html=1;align=center;verticalAlign=middle;resizable=0;points=[];autosize=1;strokeColor=none;fillColor=none;" parent="1" vertex="1">
          <mxGeometry x="250" y="190" width="20" height="20" as="geometry" />
        </mxCell>
        <mxCell id="rFXL4fR5jrizrp9rmWpI-14" style="edgeStyle=orthogonalEdgeStyle;rounded=0;orthogonalLoop=1;jettySize=auto;html=1;exitX=1;exitY=0.5;exitDx=0;exitDy=0;" parent="1" source="rFXL4fR5jrizrp9rmWpI-12" edge="1">
          <mxGeometry relative="1" as="geometry">
            <mxPoint x="440" y="210.1379310344828" as="targetPoint" />
          </mxGeometry>
        </mxCell>
        <mxCell id="rFXL4fR5jrizrp9rmWpI-12" value="q3" style="ellipse;whiteSpace=wrap;html=1;aspect=fixed;" parent="1" vertex="1">
          <mxGeometry x="360" y="190" width="40" height="40" as="geometry" />
        </mxCell>
        <mxCell id="rFXL4fR5jrizrp9rmWpI-13" value="h" style="text;html=1;align=center;verticalAlign=middle;resizable=0;points=[];autosize=1;strokeColor=none;fillColor=none;" parent="1" vertex="1">
          <mxGeometry x="330" y="190" width="20" height="20" as="geometry" />
        </mxCell>
        <mxCell id="rFXL4fR5jrizrp9rmWpI-15" value="k" style="text;html=1;align=center;verticalAlign=middle;resizable=0;points=[];autosize=1;strokeColor=none;fillColor=none;" parent="1" vertex="1">
          <mxGeometry x="404" y="190" width="20" height="20" as="geometry" />
        </mxCell>
        <mxCell id="rFXL4fR5jrizrp9rmWpI-17" value="" style="ellipse;whiteSpace=wrap;html=1;aspect=fixed;" parent="1" vertex="1">
          <mxGeometry x="440" y="185" width="50" height="50" as="geometry" />
        </mxCell>
        <mxCell id="r3lx3HDi-DG6S8iQHy35-1" style="edgeStyle=orthogonalEdgeStyle;rounded=0;orthogonalLoop=1;jettySize=auto;html=1;entryX=0;entryY=0.5;entryDx=0;entryDy=0;" edge="1" parent="1" target="rFXL4fR5jrizrp9rmWpI-22">
          <mxGeometry relative="1" as="geometry">
            <mxPoint x="520" y="210" as="targetPoint" />
            <mxPoint x="490" y="210" as="sourcePoint" />
          </mxGeometry>
        </mxCell>
        <mxCell id="rFXL4fR5jrizrp9rmWpI-19" value="q4" style="ellipse;whiteSpace=wrap;html=1;aspect=fixed;" parent="1" vertex="1">
          <mxGeometry x="445" y="190" width="40" height="40" as="geometry" />
        </mxCell>
        <mxCell id="r3lx3HDi-DG6S8iQHy35-5" style="edgeStyle=orthogonalEdgeStyle;rounded=0;orthogonalLoop=1;jettySize=auto;html=1;exitX=1;exitY=0.5;exitDx=0;exitDy=0;entryX=0;entryY=0.5;entryDx=0;entryDy=0;" edge="1" parent="1" source="rFXL4fR5jrizrp9rmWpI-22" target="r3lx3HDi-DG6S8iQHy35-3">
          <mxGeometry relative="1" as="geometry" />
        </mxCell>
        <mxCell id="rFXL4fR5jrizrp9rmWpI-22" value="q5" style="ellipse;whiteSpace=wrap;html=1;aspect=fixed;" parent="1" vertex="1">
          <mxGeometry x="540" y="190" width="40" height="40" as="geometry" />
        </mxCell>
        <mxCell id="rFXL4fR5jrizrp9rmWpI-25" value="s" style="text;html=1;align=center;verticalAlign=middle;resizable=0;points=[];autosize=1;strokeColor=none;fillColor=none;" parent="1" vertex="1">
          <mxGeometry x="500" y="190" width="20" height="20" as="geometry" />
        </mxCell>
        <mxCell id="rFXL4fR5jrizrp9rmWpI-27" value="z" style="text;html=1;align=center;verticalAlign=middle;resizable=0;points=[];autosize=1;strokeColor=none;fillColor=none;" parent="1" vertex="1">
          <mxGeometry x="590" y="190" width="20" height="20" as="geometry" />
        </mxCell>
        <mxCell id="r3lx3HDi-DG6S8iQHy35-3" value="" style="ellipse;whiteSpace=wrap;html=1;aspect=fixed;" vertex="1" parent="1">
          <mxGeometry x="630" y="185" width="50" height="50" as="geometry" />
        </mxCell>
        <mxCell id="r3lx3HDi-DG6S8iQHy35-4" value="q6" style="ellipse;whiteSpace=wrap;html=1;aspect=fixed;" vertex="1" parent="1">
          <mxGeometry x="635" y="190" width="40" height="40" as="geometry" />
        </mxCell>
      </root>
    </mxGraphModel>
  </diagram>
</mxfile>
